# xmcd
#
# Track frame offsets:
#	150
#	15578
#	30226
#	43062
#	56648
#	70471
#	86050
#	102192
#	116739
#	128589
#	143897
#	158280
#	172354
#	184103
#	196133
#	208285
#	220297
#
# Disc length: 3098 seconds
#
# Revision: 4268955770
# Processed by: cddbd v1.5.2PL0 Copyright (c) Steve Scherf et al.
# Submitted via: EZCDAudioConverter 9.0.7.1
#
DISCID=f40c1811
DTITLE=Hennie De Bruyn - Warmvat Snare
DYEAR=2011
DGENRE=Contemporary Pop
TTITLE0=Boekenhout-Seties
TTITLE1=Bertus Se Vastrap
TTITLE2=Lig In Die Venster
TTITLE3=Wals Met Twee Konsertinas
TTITLE4=Haas Das Se Nuuskas
TTITLE5=Hoe Se Mens Dankie
TTITLE6=Loslappie
TTITLE7=Blou Oog
TTITLE8=Kwela Vir Hannelie
TTITLE9=Cherese
TTITLE10=Sonop
TTITLE11=Babbelas
TTITLE12=Warmvat
TTITLE13=Bosveldliefde
TTITLE14=Stille Nag
TTITLE15=Dierbare Kruis
TTITLE16=Wat 'N Vriend Het Ons In Jesus
EXTD=
EXTT0=
EXTT1=
EXTT2=
EXTT3=
EXTT4=
EXTT5=
EXTT6=
EXTT7=
EXTT8=
EXTT9=
EXTT10=
EXTT11=
EXTT12=
EXTT13=
EXTT14=
EXTT15=
EXTT16=
PLAYORDER=
